<?xml version="1.0" encoding="utf-8"?>
<!-- Generator: Adobe Illustrator 24.0.1, SVG Export Plug-In . SVG Version: 6.00 Build 0)  -->
<svg version="1.1" xmlns="http://www.w3.org/2000/svg" xmlns:xlink="http://www.w3.org/1999/xlink" x="0px" y="0px"
	 viewBox="0 0 500 254.1" style="enable-background:new 0 0 500 254.1;" xml:space="preserve">
<style type="text/css">
	.st0{fill:#FF7700;}
	.st1{fill:#FFD939;}
	.st2{fill:#D4DAFF;}
	.st3{fill:#3747A3;}
	.st4{fill:#4A60DB;}
	.st5{fill:#292E4A;}
	.st6{fill:none;stroke:#FFFFFF;stroke-width:1.4467;stroke-linecap:round;stroke-linejoin:round;stroke-miterlimit:10;}
	.st7{fill:none;stroke:#3747A3;stroke-width:0.9823;stroke-miterlimit:10;}
	.st8{fill:#F9B989;}
	.st9{fill:#FFFFFF;}
	.st10{fill:#6470B5;}
	.st11{fill:#495285;}
	.st12{fill:#2AB5C4;}
	.st13{fill:#D1D1D1;}
	.st14{fill:#F59462;}
	.st15{fill:#995417;}
	.st16{fill:none;stroke:#495285;stroke-miterlimit:10;}
	.st17{fill:none;stroke:#292E4A;stroke-width:1.0223;stroke-miterlimit:10;}
	.st18{fill:none;}
</style>
<g id="FUNDO">
	<g>
		<path class="st0" d="M25.7,155c10-3.4,20.6-5.4,31.2-5.8c1.3,0,2.7-0.1,4-0.1l4,0.1c2.7,0.1,5.3,0.3,8,0.6
			c5.3,0.6,10.6,1.5,15.8,2.9c5.2,1.4,10.3,3,15.2,5.1c5,2.1,9.7,4.6,14.4,7.1c9.3,5.1,18.2,10.5,27.7,14.6
			c9.5,4.1,19.6,6.8,29.9,8.5c10.3,1.7,20.8,2.7,31.3,3c5.3,0.1,10.5,0.4,15.8,0.2l7.9-0.1c2.6-0.1,5.3-0.3,7.9-0.4
			c2.6-0.2,5.3-0.3,7.9-0.5l7.8-0.8l3.9-0.4c1.3-0.1,2.6-0.3,3.9-0.5l7.8-1.1c10.4-1.5,20.7-3.5,30.9-5.7c1.3-0.3,2.6-0.5,3.8-0.9
			l3.8-0.9l7.6-1.9c5-1.4,10.1-2.8,15.1-4.3l7.5-2.5l3.7-1.2l1.9-0.6l1.8-0.7l7.3-2.8l3.7-1.4c1.2-0.5,2.4-1,3.6-1.5l7.2-3.1
			c1.2-0.5,2.4-1,3.6-1.6l3.5-1.7l7.1-3.4c1.2-0.5,2.3-1.1,3.5-1.8l3.5-1.8c18.6-9.6,35.9-21.3,52.5-34.2
			c8.3-6.4,16.7-12.9,25.2-19.1c8.5-6.2,17.4-12.1,26.6-17.2l0.3,0.4c-17.6,11.6-33.3,25.6-49.6,39c-16.1,13.6-33.7,25.9-52.5,35.9
			l-3.5,1.9c-1.2,0.6-2.3,1.3-3.6,1.8l-7.2,3.4c-4.8,2.4-9.7,4.3-14.6,6.3c-1.2,0.5-2.4,1-3.7,1.5l-3.7,1.4l-7.5,2.7l-1.9,0.7
			l-1.9,0.6l-3.8,1.2l-7.6,2.4c-20.4,6-41.3,9.8-62.3,12l-7.9,0.8c-1.3,0.1-2.6,0.2-4,0.3l-4,0.2l-7.9,0.5c-2.6,0.1-5.3,0.2-7.9,0.3
			l-7.9,0.3l-7.9,0.1l-4,0c-1.3,0-2.6,0-4,0l-7.9-0.1c-5.3,0-10.6-0.2-15.8-0.5c-5.3-0.3-10.6-0.7-15.8-1.3
			c-10.5-1.3-21.1-3.5-31.1-7.4c-10-4-19.2-9.5-28.3-14.6c-9.1-5.2-18.5-9.5-28.5-12.3c-5-1.4-10.1-2.5-15.2-3.3
			c-5.1-0.7-10.3-1.2-15.5-1.3c-5.2,0-10.4,0.1-15.6,0.8c-5.2,0.6-10.4,1.6-15.5,2.8L25.7,155z"/>
	</g>
</g>
<g id="OBJECTS">
	<g>
		<g>
			<path class="st1" d="M395.3,19.6c2.9,0.5,5.4,1.3,7.5,2.5c2.2,1.1,4,2.4,5.4,3.8c1.5,1.4,2.6,3,3.3,4.5c0.8,1.6,1.2,3.1,1.3,4.5
				c0.1,0.7-0.2,1.3-0.7,1.7c-0.5,0.4-1.1,0.6-1.7,0.6h-6.1c-1,0-1.7-0.2-2.2-0.6c-0.5-0.4-1-0.9-1.4-1.5c-0.9-1.4-2.2-2.7-4-3.8
				c-1.8-1.1-4.4-1.6-7.9-1.6c-1.5,0-3,0.2-4.3,0.5c-1.4,0.3-2.6,0.8-3.6,1.4c-1,0.6-1.8,1.3-2.4,2.2c-0.6,0.9-0.9,1.8-0.9,2.9
				c0,1.3,0.3,2.4,1,3.2c0.6,0.8,1.7,1.6,3.1,2.2c1.4,0.6,3.3,1.2,5.5,1.7c2.3,0.5,5,1.1,8.2,1.8c3.5,0.7,6.5,1.6,8.9,2.6
				c2.4,1,4.4,2.2,6,3.6c1.5,1.4,2.7,3,3.3,4.9c0.7,1.8,1,3.9,1,6.3c0,2.2-0.4,4.3-1.3,6.3c-0.9,2-2.1,3.7-3.8,5.3
				c-1.7,1.6-3.7,2.9-6.1,3.9c-2.4,1-5.1,1.8-8.2,2.2v5.9c0,0.6-0.2,1.2-0.7,1.6c-0.5,0.5-1,0.7-1.7,0.7h-7.1
				c-0.6,0-1.2-0.2-1.7-0.7c-0.5-0.5-0.7-1-0.7-1.6v-5.9c-2.6-0.4-5.1-1.1-7.4-2c-2.3-1-4.3-2.1-6.1-3.5c-1.7-1.4-3.1-3-4.2-4.8
				c-1.1-1.8-1.6-3.8-1.8-6c-0.1-0.7,0.2-1.3,0.7-1.7c0.5-0.4,1.1-0.6,1.7-0.6h6.1c1,0,1.8,0.2,2.3,0.5c0.5,0.3,1,0.9,1.3,1.6
				c0.4,0.7,0.9,1.5,1.5,2.2c0.6,0.7,1.4,1.4,2.4,2c1,0.6,2.2,1.1,3.7,1.4c1.5,0.4,3.3,0.6,5.6,0.6c1.8,0,3.4-0.1,5.1-0.4
				c1.6-0.3,3.1-0.7,4.3-1.3c1.2-0.6,2.2-1.4,3-2.2c0.8-0.9,1.1-2,1.1-3.3c0-1.3-0.4-2.3-1.2-3.1c-0.8-0.8-2.1-1.5-3.7-2.1
				c-1.7-0.6-3.7-1.1-6.2-1.6c-2.5-0.5-5.3-1.2-8.5-2c-2.9-0.7-5.5-1.5-7.7-2.5c-2.2-1-4-2.1-5.4-3.5c-1.4-1.4-2.5-3-3.2-4.9
				c-0.7-1.9-1.1-4.1-1.1-6.7c0-2.2,0.4-4.3,1.3-6.2c0.9-1.9,2.1-3.6,3.6-5.1c1.5-1.5,3.4-2.8,5.6-3.8c2.2-1,4.5-1.7,7.1-2.2v-5.9
				c0-0.6,0.2-1.2,0.7-1.6c0.5-0.5,1-0.7,1.7-0.7h7.1c0.6,0,1.2,0.2,1.7,0.7c0.5,0.5,0.7,1,0.7,1.6V19.6z"/>
		</g>
		<path class="st2" d="M107.4,154.5v-12.1l-7.6,0.4c-0.5-1.8-1.2-3.5-2.1-5.1l5.7-5.1l-8.6-8.6l-5.1,5.7c-1.6-0.9-3.3-1.6-5.1-2.1
			l0.4-7.6H72.8l0.4,7.6c-1.8,0.5-3.5,1.2-5.1,2.1L63,124l-8.6,8.6l5.7,5.1c-0.9,1.6-1.6,3.3-2.1,5.1l-7.6-0.4v12.1l7.6-0.4
			c0.5,1.8,1.2,3.5,2.1,5.1l-5.7,5.1l8.6,8.6l5.1-5.7c1.6,0.9,3.3,1.6,5.1,2.1l-0.4,7.6h12.1l-0.4-7.6c1.8-0.5,3.5-1.2,5.1-2.1
			l5.1,5.7l8.6-8.6l-5.7-5.1c0.9-1.6,1.6-3.3,2.1-5.1L107.4,154.5z M78.9,159c-5.8,0-10.6-4.7-10.6-10.6c0-5.8,4.7-10.6,10.6-10.6
			c5.8,0,10.6,4.7,10.6,10.6C89.4,154.3,84.7,159,78.9,159z"/>
		<path class="st2" d="M184.2,56.8V43l-8.7,0.5c-0.6-2.1-1.4-4-2.4-5.8l6.5-5.8l-9.8-9.8l-5.8,6.5c-1.8-1-3.8-1.9-5.8-2.4l0.5-8.7
			h-13.8l0.5,8.7c-2.1,0.6-4,1.4-5.8,2.4l-5.8-6.5l-9.8,9.8l6.5,5.8c-1,1.8-1.9,3.8-2.4,5.8l-8.7-0.5v13.8l8.7-0.5
			c0.6,2.1,1.4,4,2.4,5.8l-6.5,5.8l9.8,9.8l5.8-6.5c1.8,1,3.8,1.9,5.8,2.4l-0.5,8.7h13.8l-0.5-8.7c2.1-0.6,4-1.4,5.8-2.4l5.8,6.5
			l9.8-9.8l-6.5-5.8c1-1.8,1.9-3.8,2.4-5.8L184.2,56.8z M151.7,61.9c-6.7,0-12.1-5.4-12.1-12.1s5.4-12.1,12.1-12.1
			c6.7,0,12.1,5.4,12.1,12.1S158.4,61.9,151.7,61.9z"/>
		<g>
			<path class="st3" d="M99.8,236.4c-8.7,0-15.7-7.1-15.7-15.7V65.8c0-8.7,7.1-15.7,15.7-15.7h67.6c8.7,0,15.7,7.1,15.7,15.7v154.9
				c0,8.7-7.1,15.7-15.7,15.7H99.8z"/>
			<path class="st4" d="M107.5,236.4c-8.7,0-15.7-7.1-15.7-15.7V65.8c0-8.7,7.1-15.7,15.7-15.7h67.6c8.7,0,15.7,7.1,15.7,15.7v154.9
				c0,8.7-7.1,15.7-15.7,15.7H107.5z"/>
			<path class="st5" d="M175.1,54.8h-15.7c-0.8,0-1.6,0.5-1.8,1.3l-0.7,2.3c-0.4,1.3-1.6,2.2-3,2.2h-25.1c-1.4,0-2.6-0.9-3-2.2
				l-0.7-2.3c-0.2-0.8-1-1.3-1.8-1.3h-15.7c-6.1,0-11,4.9-11,11v154.9c0,6.1,4.9,11,11,11h67.6c6.1,0,11-4.9,11-11V65.8
				C186.1,59.7,181.1,54.8,175.1,54.8z"/>
			<path class="st5" d="M148.3,57h-13.9c-0.4,0-0.8-0.3-0.8-0.8l0,0c0-0.4,0.3-0.8,0.8-0.8h13.9c0.4,0,0.8,0.3,0.8,0.8l0,0
				C149,56.7,148.7,57,148.3,57z"/>
			<line class="st6" x1="87.5" y1="81.4" x2="87.5" y2="104.5"/>
			<line class="st6" x1="87.5" y1="111.7" x2="87.5" y2="122.5"/>
		</g>
		<g>
			<polygon class="st4" points="303.6,229.2 321.9,124.8 456.7,124.8 438.4,229.2 			"/>
			<polygon class="st5" points="434.7,224.8 308.9,224.8 325.6,129.2 451.4,129.2 			"/>
			<rect x="214.5" y="229.2" class="st3" width="224.5" height="7.5"/>
			<rect x="214.5" y="229.2" class="st4" width="103.1" height="7.5"/>
			<line class="st7" x1="438.9" y1="229.2" x2="214.5" y2="229.2"/>
		</g>
		<g>
			<path class="st8" d="M404.9,202.7c0,0,1.4,3.9,0.9,5.8c-0.5,1.9-2,3.6-2.1,6.4c-0.1,2.8,0.2,7.8,1.1,8c0.9,0.2,0.3-3.8,1.1-4.1
				c0.8-0.3,3.6,5.8,3.6,5.8h8.2c0,0-2.8-17.6-3.3-20.6C414,201,404.9,202.7,404.9,202.7z"/>
			<path class="st8" d="M266.2,155.7c0,0-13.2-1.1-16.5-1.9c-3.3-0.8-12.1,1.9-12.1,1.9l14.7,12.1c0,0,3.7-2.3,7.7-3
				c4-0.7,6.8-0.4,6.8-0.4L266.2,155.7z"/>
			<path class="st8" d="M322.6,80.2c-0.2,3.3-1.1,11.6-0.5,15.4c0.5,3.8,2.5,6.5,6.5,5.9c4-0.6,7.5,16.2,7.5,16.2l8.6,1.3l6.2-9.4
				L345,99.3c0,0,4.2-11.4,2-18c-2.2-6.7-18-11.9-24-9.7S322.6,80.2,322.6,80.2z"/>
			<polygon class="st0" points="331,108.6 340.9,112.5 342.9,117 342.9,111.3 350.3,103.5 352.2,107.8 371.9,185.5 342.6,185.5 
				325.5,117 330.6,113.6 			"/>
			<polygon class="st9" points="387.9,224.6 328.2,224.6 339.4,185.5 384.7,185.5 			"/>
			<path class="st10" d="M330.6,113.6c2.9,8,16,63.3,18.1,70.8c2,7.5,3.2,28.2,3.2,28.2s-17.3,0.3-21.3,0
				c-3.9-0.3,1.3-24.3,1.1-29.8c-0.2-5.5-10.7-34-10.7-34s-19.7,17.2-22.7,17.5c-3,0.3-34-0.8-34-0.8v-10.8c0,0,26-1.5,28.8-3
				c2.8-1.5,20-21.3,24.2-26.3C321.5,120.3,325.4,113.8,330.6,113.6z"/>
			<path class="st11" d="M314.7,136.5c-2.3,0.3-4.6,14.5-7.5,18.6c-1.8,2.6-4.5,6.7-6,9.6c6.3-4.2,19.8-16,19.8-16
				C319.7,145.8,317,136.3,314.7,136.5z"/>
			<path class="st10" d="M404.3,205h11.3l-4.5-25c-1.4-9.2-4.4-18.2-8.8-26.4c-7.4-14-19-34.9-23.8-38.6c-3.1-2.4-17.3-7.8-26.4-7.3
				c0,0,10.4,63.7,11.9,73.7s7.8,29.8,7.8,29.8h21l-4.9-28.7l-5.6-26.8l11.8,15.9L404.3,205z"/>
			<path class="st11" d="M382.4,155.8c0,0-7.1-9.9-8.8-15.4s-2.5-13.1-1.8-15.2s-1.8-3-2.9,6.1s-1.1,17.3,4.4,26.3s1.6,14.3,6,22.3
				s10,11.1,10,11.1L382.4,155.8z"/>
			<path d="M315.4,70.5c2.9-6.2,9.7-2.5,17.3-1.6c7.6,0.9,14.6,1.9,17.1,7.2c2.4,5.4-0.6,16.3-4.7,23.1c0,0-3.3-4.1-3.4-7
				c0-2.9,3.4-4.7,1.9-7.4c-1.4-2.8-3.4-1-3.9,0.2s-0.7,2.4-1.2,1.8c-0.5-0.6,0.4-3.2,0.2-5.3c-0.3-2.1-1.3-5.3-6.1-4.6
				c-4.7,0.7-9.7-0.3-9.7-0.3l-0.3,3.6C322.6,80.2,312.2,77.5,315.4,70.5z"/>
		</g>
		<g>
			<path class="st12" d="M196.3,110.2c0,0,6.7-1.2,9.3-8.9s9.7-15.9,22.1-14.7c12.4,1.2,18.7,10.2,17,23.6
				c-1.7,13.4-13.2,15.4-21.7,15.3c-8.5-0.1-14.3-9-18-11.9C201.5,110.7,196.3,110.2,196.3,110.2z"/>
			<path class="st9" d="M235.4,108V104l-2.6,0.1c-0.2-0.6-0.4-1.2-0.7-1.7l1.9-1.7l-2.9-2.9l-1.7,1.9c-0.5-0.3-1.1-0.5-1.7-0.7
				l0.1-2.6h-4.1l0.1,2.6c-0.6,0.2-1.2,0.4-1.7,0.7l-1.7-1.9l-2.9,2.9l1.9,1.7c-0.3,0.5-0.5,1.1-0.7,1.7l-2.6-0.1v4.1l2.6-0.1
				c0.2,0.6,0.4,1.2,0.7,1.7l-1.9,1.7l2.9,2.9l1.7-1.9c0.5,0.3,1.1,0.5,1.7,0.7l-0.1,2.6h4.1l-0.1-2.6c0.6-0.2,1.2-0.4,1.7-0.7
				l1.7,1.9l2.9-2.9l-1.9-1.7c0.3-0.5,0.5-1.1,0.7-1.7L235.4,108z M225.8,109.6c-2,0-3.6-1.6-3.6-3.6c0-2,1.6-3.6,3.6-3.6
				c2,0,3.6,1.6,3.6,3.6C229.4,108,227.8,109.6,225.8,109.6z"/>
		</g>
		<g>
			<path class="st12" d="M257.7,50.6c4.1-3.9,45.5-1.6,48.3,0.8c2.9,2.4,0.9,19,1,25.2c0,3.6,3.4,10.9,7.7,11.3
				c-4.9,2.6-12.8,0.8-16.7-1.5c-3.9-2.3-5.2-1.8-12.6-1.8c-7.4,0-19.3,0-24.2,0c-4.9,0-6.3-4.8-6.3-12.2S255,53.1,257.7,50.6z"/>
			<g>
				<path class="st1" d="M284.5,57.6c0.9,0.2,1.7,0.4,2.4,0.8c0.7,0.4,1.2,0.8,1.7,1.2c0.5,0.5,0.8,0.9,1,1.4c0.2,0.5,0.4,1,0.4,1.4
					c0,0.2-0.1,0.4-0.2,0.5c-0.2,0.1-0.3,0.2-0.5,0.2h-1.9c-0.3,0-0.5-0.1-0.7-0.2c-0.2-0.1-0.3-0.3-0.4-0.5
					c-0.3-0.5-0.7-0.8-1.2-1.2c-0.6-0.3-1.4-0.5-2.5-0.5c-0.5,0-0.9,0-1.4,0.1c-0.4,0.1-0.8,0.2-1.1,0.4c-0.3,0.2-0.6,0.4-0.8,0.7
					c-0.2,0.3-0.3,0.6-0.3,0.9c0,0.4,0.1,0.8,0.3,1c0.2,0.3,0.5,0.5,1,0.7c0.4,0.2,1,0.4,1.7,0.5c0.7,0.2,1.6,0.4,2.6,0.6
					c1.1,0.2,2,0.5,2.8,0.8c0.8,0.3,1.4,0.7,1.9,1.1c0.5,0.4,0.8,1,1,1.5c0.2,0.6,0.3,1.2,0.3,2c0,0.7-0.1,1.4-0.4,2
					c-0.3,0.6-0.7,1.2-1.2,1.6c-0.5,0.5-1.2,0.9-1.9,1.2c-0.8,0.3-1.6,0.5-2.6,0.7v1.8c0,0.2-0.1,0.4-0.2,0.5
					c-0.1,0.1-0.3,0.2-0.5,0.2h-2.2c-0.2,0-0.4-0.1-0.5-0.2c-0.1-0.1-0.2-0.3-0.2-0.5v-1.8c-0.8-0.1-1.6-0.3-2.3-0.6
					c-0.7-0.3-1.4-0.7-1.9-1.1c-0.5-0.4-1-0.9-1.3-1.5c-0.3-0.6-0.5-1.2-0.5-1.9c0-0.2,0.1-0.4,0.2-0.5c0.2-0.1,0.3-0.2,0.5-0.2h1.9
					c0.3,0,0.5,0.1,0.7,0.2c0.2,0.1,0.3,0.3,0.4,0.5c0.1,0.2,0.3,0.5,0.5,0.7c0.2,0.2,0.4,0.4,0.7,0.6c0.3,0.2,0.7,0.3,1.2,0.4
					c0.5,0.1,1,0.2,1.7,0.2c0.5,0,1.1,0,1.6-0.1c0.5-0.1,1-0.2,1.3-0.4c0.4-0.2,0.7-0.4,0.9-0.7c0.2-0.3,0.4-0.6,0.4-1
					c0-0.4-0.1-0.7-0.4-1c-0.3-0.3-0.6-0.5-1.2-0.6c-0.5-0.2-1.2-0.4-1.9-0.5c-0.8-0.2-1.7-0.4-2.7-0.6c-0.9-0.2-1.7-0.5-2.4-0.8
					c-0.7-0.3-1.3-0.7-1.7-1.1c-0.4-0.4-0.8-0.9-1-1.5c-0.2-0.6-0.3-1.3-0.3-2.1c0-0.7,0.1-1.4,0.4-1.9c0.3-0.6,0.7-1.1,1.1-1.6
					c0.5-0.5,1.1-0.9,1.7-1.2c0.7-0.3,1.4-0.5,2.2-0.7v-1.8c0-0.2,0.1-0.4,0.2-0.5c0.1-0.1,0.3-0.2,0.5-0.2h2.2
					c0.2,0,0.4,0.1,0.5,0.2c0.1,0.1,0.2,0.3,0.2,0.5V57.6z"/>
			</g>
		</g>
		<g>
			<path class="st9" d="M167.7,192l2.3,39.6h-63.9c0,0,1.7-8.8,1.7-16c0-14.3,8.5-23.6,8.5-23.6H167.7z"/>
			<polygon class="st13" points="148.6,231.6 170.1,231.6 167.7,192 159.6,192 			"/>
			<path class="st14" d="M187.4,73.3c0,0-0.7,9,0.5,10.6c1.2,1.6,0.7,2.6-0.3,3.1c-1.1,0.5-1.1,8.8-3.6,9.4
				c-2.5,0.6-4.7-1.3-5.6,1.3c-0.9,2.7-2.1,9.1-2.1,9.1l-15.8-1.1l4.4-11.7c0,0-3-8.7-1-16.2S186.9,65.8,187.4,73.3z"/>
			<path class="st10" d="M156.9,102.3l26.4,3.7c0.6,0.1,1,0.7,0.9,1.3l-1.5,6c0,0,1.3,9.3,0.8,16.3c-0.5,7-6.2,31.3-7.7,38.8
				s-2.7,26-6.5,26.2c-3.8,0.2-48.3,0-56,0s3.8-7.8,7.7-14.7c3.8-6.8,8.5-29.8,14.7-43c6.2-13.2,19.8-27.9,20.2-30.8
				S155.4,102,156.9,102.3z"/>
			<path class="st11" d="M154.6,129c-2.8-3.5-4.3-2.6-2.9,3.2c1.5,5.9,3.4,11.1,8.9,14.6c5,3.2,6.2,21.9,14.3,26.7
				c0.3-2,0.5-3.8,0.8-5.2c1.2-6.1,5.2-23.5,6.9-33.5C182.6,134.9,156.9,132,154.6,129z"/>
			<path class="st14" d="M188.1,136.5c0,0,9.5,12.9,12.6,13.8c3.1,0.9,33.9,3.4,36.6,3.4c2.7,0,8.8,3.8,11.2,4.9
				c2.4,1.2,8.8,6.5,5.5,8.4c-3.3,1.9-8.9,1.8-12.2,0s-5.9-4.1-8.8-4.1s-31.5,0.7-37.8-1.2c-8.7-2.6-22.1-17.3-24.3-19.2
				L188.1,136.5z"/>
			<path class="st8" d="M234.5,165.1c0.3-1.9-0.1-3.8,2.6-2.8s5.6,3.3,7.8,3.9s-0.1,3.2-1.8,3.2S234.3,167,234.5,165.1z"/>
			<path class="st8" d="M234.2,155.2c0,0,11.3-2.1,14.2-1.6c2.9,0.5,1,1.7-2.3,2.7C238.7,158.6,231.2,156.7,234.2,155.2z"/>
			<path class="st15" d="M171.2,82.8c0,0-3-3-3.8,0c-0.8,3,2.5,5.5,1.9,7.2c-0.6,1.7-3.1,8.2-4.9,7.8c-1.8-0.3,0.5-4-1.7-7.3
				c-2.2-3.3-5-7.3-3.2-14.8c1.8-7.5,7.7-5.5,9.7-8.3c2-2.8,3.7-5.7,11.5-4.8c7.8,0.8,11.3-3.8,14.7-0.1c3.3,3.6,2.8,10.3-5.5,12.1
				c-8.3,1.8-10-0.7-11.7,1.3C176.4,77.8,173.4,82.6,171.2,82.8z"/>
			<path class="st10" d="M152.8,126.9l16.3,18.8l20.9-8.1c0,0-9.8-14.8-13.2-18.8c-3.3-4-9.2-8.1-14.2-7.3
				C157.7,112.3,148.7,121.5,152.8,126.9z"/>
			<path class="st16" d="M173.5,115.5c0,0,4.5,3.2,9.9,12.4"/>
		</g>
		<line class="st17" x1="72.5" y1="236.4" x2="191" y2="236.4"/>
		<line class="st17" x1="210.8" y1="236.4" x2="457.9" y2="236.4"/>
	</g>
	<path class="st18" d="M484.6,40.8c-43.9-7.7-89.8-3.8-131.8,11.1c-29.9,10.6-58.9,27.8-75.7,54.7c-8.5,13.6-13.5,29.1-22.4,42.4
		c-14,21.1-36.9,35.1-61,42.9s-49.6,9.8-74.9,11.1c-60.9,3-122,1.8-182.8-3.6"/>
</g>
</svg>
