<?xml version="1.0" encoding="utf-8"?>
<!-- Generator: Adobe Illustrator 24.0.1, SVG Export Plug-In . SVG Version: 6.00 Build 0)  -->
<svg version="1.1" id="Layer_1" xmlns="http://www.w3.org/2000/svg" xmlns:xlink="http://www.w3.org/1999/xlink" x="0px" y="0px"
	 viewBox="0 0 3000 2000" style="enable-background:new 0 0 3000 2000;" xml:space="preserve">
<style type="text/css">
	.st0{fill:#FFFFFF;}
	.st1{fill:#00A9B5;}
	.st2{fill:#FFB27D;}
	.st3{fill:#570000;}
	.st4{fill:#2B478B;}
	.st5{fill:#233862;}
	.st6{fill:#956BD6;}
	.st7{fill:#6C44B7;}
	.st8{fill:#ED985F;}
	.st9{fill:#FF8904;}
	.st10{opacity:0.46;}
	.st11{fill:#4F7BBA;}
	.st12{fill:#B2CBFD;}
	.st13{fill:#7A97F3;}
	.st14{fill:#466AA5;}
	.st15{fill:#89412B;}
	.st16{fill:#9B4C34;}
	.st17{fill:#603224;}
	.st18{fill:#D1D1D1;}
	.st19{fill:#AFAFAF;}
	.st20{fill:#ED7D2B;}
	.st21{fill:#F99746;}
	.st22{fill:#D36922;}
	.st23{fill:#A2C1F4;}
	.st24{fill:#E8E8E8;}
	.st25{fill:#DDEAF4;}
	.st26{fill:#C7DCF9;}
	.st27{fill:#72461E;}
	.st28{fill:#754C2E;}
	.st29{fill:#F9DDBF;}
	.st30{fill:#B28346;}
	.st31{fill:#754D2F;}
</style>
<g>
	<rect x="22.9" y="-5.2" class="st0" width="3000" height="2000"/>
	<path class="st1" d="M2223.7,618.3l-31.9-25.8l-648.6,872.8l345.2-904.1l-165.2,95.9l162.7-426c-43,5.3-84.8,12.7-124.4,21.8
		c-22.5,5.1-43.9,10.9-64.3,17.2l-491.9,925l154-244.9l-298.2,674.9l-24.5-278l480-995.6c-220.1,137.1-274.5,337.2-388.7,345.3
		c-65.7,4.7-159.8-34.2-273.7-45.6C711.4,636.9,537.4,665.6,348.6,877c-24.7,27.7-46.3,56.1-64.9,85c-1.4,2.1-2.7,4.2-4,6.3
		c-13,20.6-24.5,41.5-34.8,62.4c-15.4,31.5-27.7,63.3-37.5,95c-90,292.2,38.7,582.6,63.3,633.7l1529.5,0l603-1202.4l-744,1076.1
		L2223.7,618.3z"/>
	<g>
		<path class="st2" d="M1017.9,902.9c0,0,12.9-22.3,6.6-35.4c-6.3-13.2-12.1-16.6-15.5-10.3c-3.4,6.3-3.9,40.1-3.9,40.1
			L1017.9,902.9z"/>
		<g>
			<path class="st3" d="M958.1,934.1l1.2,1.1c1.4,1.3,3.3,1.4,4.4,0.2L1061,834l-9.7-11.9l-93.8,107.3
				C956.4,930.7,956.7,932.8,958.1,934.1z"/>
			<polygon class="st0" points="1036.5,809.3 1077.8,852.2 1085.6,846.2 1038.9,797.5 			"/>
		</g>
		<path class="st2" d="M755.2,1309c1.3,10.1-169.6,359.3-170.9,423.8l-24.8,1.3c0,0,0-173.5,48.4-242c4.9-6.9,7.6-15,7.9-23.5
			c1.8-54,12.8-244,75.6-237.1C764.7,1239.6,755.2,1309,755.2,1309z"/>
		<path class="st4" d="M578.3,1565.4c9.1,33,82.2,48.3,82.2,48.3l5.5-16.1l1.2-3.5l32.2-94.9l12.5-36.9l33.1-97.4
			c0,0-18.5-113-63.6-131.5c-45-18.5-81.8,228.3-81,238.4C601.2,1481.9,578.3,1565.4,578.3,1565.4z"/>
		<path class="st5" d="M628.2,1764.1h-79.8c0,0-1.9-12.2,2.3-21.4c4-8.9,9-12,9.1-24.2c5.1,5.2,13,11.6,24.5,10.1
			c1.4,2.3,9.1,14.6,13.8,17.9C603.3,1750.3,626.6,1749,628.2,1764.1z"/>
		<path class="st5" d="M666,1597.6l1.2-3.5l32.2-94.9l-5.7-41.5c-0.6-52.7-27.9-129.5-42.6-124.4C651,1333.3,674.4,1423,666,1597.6z
			"/>
		<path class="st2" d="M708.4,1019.3c0,0-88.8,92.8-103.4,113.7c-14.6,20.8-44.9,112.7-44.9,112.7l16.7,3.4c0,0,53.3-92.2,57.5-97.9
			c4.2-5.7,74.2-52.7,74.2-52.7V1019.3z"/>
		<path class="st6" d="M596.9,1147.8c0,0,9.9,12.6,34.1,8.4c0,0,3.1-5.3,4.6-5.9c0.9-0.4,43.8-30.5,78.2-54.7
			c23.2-16.3,42.5-29.9,42.5-29.9l-47.8-46.4c0,0-101.5,105.3-105.1,114C599.7,1142.1,596.9,1147.8,596.9,1147.8z"/>
		<path class="st7" d="M635.6,1150.3c0.9-0.4,43.8-30.5,78.2-54.7c0,0,0-0.1,0-0.1c-3.4-12.2-15.2-20.6-15.2-20.6
			S641.6,1127.3,635.6,1150.3z"/>
		<path class="st2" d="M734,1040.5h45.1c4.9-11.4,7.9-22.4,9.7-31.7c1.6-8,2.3-14.7,2.6-19.1c0.3-3.6,0.3-5.7,0.3-5.7l-38.7-12.8
			l-4.4,16L734,1040.5z"/>
		<path class="st8" d="M748.7,987.2c0,0,15.5,20.2,40.2,21.6c1.6-8,2.3-14.7,2.6-19.1C779.2,985.9,762.8,984,748.7,987.2z"/>
		<path class="st2" d="M806.7,989.8c0,0-46.2,22.9-60-6.1c-13.8-29-29.1-45.6-0.2-61.4s40-7.5,46.9,1
			C800.4,931.9,818.3,983.1,806.7,989.8z"/>
		<path class="st2" d="M776.9,1232.4c0,0,6.6,217.1,6.6,282c0,64.9-2.8,214.3-2.8,214.3l-12.4,4.8l-12.5-14.3
			c0,0-45.1-170.8-41-194.6c10.2-58.9-65-114.5,13.3-285.1C750.8,1190,776.9,1232.4,776.9,1232.4z"/>
		<path class="st5" d="M824.5,1764.1h-79.8c0,0-1.9-12.2,2.3-21.4c4-8.9,10.2-12.9,8.8-23.6c5.1,5.2,13.3,11.1,24.9,9.5
			c1.4,2.3,9.1,14.6,13.8,17.9C799.7,1750.3,822.9,1749,824.5,1764.1z"/>
		<path class="st2" d="M805.1,1082.8c0,0,120.7-22.8,141.3-39.1c20.6-16.3,71.4-140.8,71.4-140.8l-12.8-5.6
			c0,0-83.8,116.1-89.6,119.3c-5.8,3.3-95.4-5.6-110.3,8.3C790.2,1038.8,805.1,1082.8,805.1,1082.8z"/>
		<path class="st4" d="M800.2,1276.3c0.7,2.1,4.3,69.5-6.3,181.2c-7,74.3-1.6,152.1-5.8,175.1c0,0-43.6,5-69.5-11
			c0,0-61.4-347.3-26.5-359.1C727,1250.7,800.2,1276.3,800.2,1276.3z"/>
		<path class="st6" d="M786.9,1017.8l48.1,76c0-0.3,0.1-0.6,0.3-1c0,0,0,0,0,0c6-12.6,102.6-40.7,109.3-45
			c6.9-4.4,16.2-21.9,16.2-21.9c-3.7-20-26.5-32.4-26.5-32.4s-18.5,19.2-20.6,21.5c-2.1,2.3-69.8-2.2-89.3-2.8
			C804.7,1011.5,786.9,1017.8,786.9,1017.8z"/>
		<path class="st7" d="M835.2,1092.8c6-12.6,102.6-40.7,109.3-45C944.6,1047.8,848.3,1050,835.2,1092.8z"/>
		<path class="st6" d="M642.6,1270.5C642.6,1270.5,642.7,1270.6,642.6,1270.5c0.8,1.1,1.9,2.1,3.1,2.8c60,33,132.8,14.5,155.1,6.8
			c4.5-1.6,7.6-5.8,7.6-10.6c1.1-103.6,24.5-112.4,28.2-164.8c3.6-52.4-7.8-84.8-7.8-84.8l-40.7-2.6c0,0-15.7,6.1-37,4.5
			c-4.4-0.3-10.6-5.1-10.6-5.1s-26.2-2.3-32.1,2.5c-26.3,21.7-27.4,101.6-26.5,154.1c0.4,27.2-11.3,40.7-19.7,53.4
			c-8,12-15.6,25-20.2,33.2C640.1,1263.4,640.5,1267.6,642.6,1270.5z"/>
		<path class="st7" d="M642.6,1270.5C642.6,1270.5,642.7,1270.6,642.6,1270.5c6.8,7.3,39.3-27.1,45.6-47.3
			c6.3-20.2-6.3-49.9-6.3-49.9c0.4,27.2-11.3,40.7-19.7,53.4c-8,12-15.6,25-20.2,33.2C640.1,1263.4,640.5,1267.6,642.6,1270.5z"/>
		<path class="st2" d="M576.8,1249c0,0-3.1,20.4-8.2,26c-5.1,5.7-19.3,16.4-21.5,10.1c-2.2-6.3,6.9-23,6.6-25.7
			c-0.3-2.7-6.6,4.2-8.5,3.1c-1.9-1.1,14.8-16.9,14.8-16.9L576.8,1249z"/>
		<path class="st9" d="M776,902.9c0,0,18.5-4.1,22.5,10.4c4,14.5-16.2,32-22.5,42.5c-6.3,10.5-20,41.7-27.3,42.5
			c-7.4,0.8-27.1-30.2-34.9-37.1c-7.8-6.9-15.4-39.8,10.5-51.1C750.1,898.8,776,902.9,776,902.9z"/>
		<path class="st9" d="M697.7,1093.8c32.1,9.7,28.5,42.3,28.5,42.3s43.8-8.6,48.8-32.8c5.8-27.8-4.8-44.2-4.8-44.2
			c9.5,2.8,13.9,13.2,15.9,23.3c1.2-11.9-2.2-24.1-11.7-34.7c-23.2-25.9-58.4-25.5-46.3-41.9c34.9-47.1,9.7-100.4,9.7-100.4
			s-12.3-10.1-42.5-3.3c-30.2,6.7-39,48.9-34.1,66.7c11.2,40.4-1.3,39.8-13.3,65C635.9,1059.1,669.4,1085.3,697.7,1093.8z"/>
		<path class="st2" d="M1005.1,897.2c0,0-3.5-3.9-4.3-8.1c-0.8-4.2-1.9-16.8,1.3-15.4c3.2,1.5,4.2,17.3,12,11.7
			S1005.1,897.2,1005.1,897.2z"/>
		<path class="st9" d="M795.1,907.2c0,0,16.3,16.4-17,64.1c0,0,4.8-21.5-10.3-24.7C752.7,943.4,795.1,907.2,795.1,907.2z"/>
	</g>
	<path class="st10" d="M1038.9,797.5l21.2-30.5l50,47.8c6.4,6.1,4.8,16.7-3.1,20.6l-21.4,10.7L1038.9,797.5z"/>
	<g>
		<path class="st11" d="M1645,1183.9c0-40.9-33.1-74-74-74c-40.9,0-74,33.1-74,74v577.6h97.6v-507.4
			C1623.8,1244.3,1645,1216.6,1645,1183.9z"/>
		<path class="st12" d="M2171.7,1482.5h-600.8v-274c0-54.4,44.1-98.6,98.6-98.6H2239L2171.7,1482.5z"/>
		<rect x="1288.4" y="1364.4" class="st11" width="219" height="395.7"/>
		<path class="st13" d="M1905.1,1581.7h-450.7c-13.6,0-24.6-11-24.6-24.6v-50c0-13.6,11-24.6,24.6-24.6h450.7V1581.7z"/>
		<path class="st13" d="M1185,1467.8c0-57.1,46.3-103.4,103.4-103.4s103.4,46.3,103.4,103.4v292.3h-127.1v-191.6
			C1219.1,1557.7,1185,1516.7,1185,1467.8z"/>
		<path class="st12" d="M2589.5,1482.5h-584.7v-274c0-54.4,44.1-98.6,98.6-98.6h476.8L2589.5,1482.5z"/>
		<rect x="2272.2" y="1364.4" class="st14" width="329.8" height="395.7"/>
		<path class="st14" d="M2654.1,1184.5c0-41.2-33.1-74.6-74-74.6s-74,33.4-74,74.6v574.8h97.6v-504
			C2633,1245.3,2654.1,1217.4,2654.1,1184.5z"/>
		<path class="st11" d="M2227.8,1581.7h-408.3c-13.6,0-24.6-11-24.6-24.6v-50c0-13.6,11-24.6,24.6-24.6h408.3V1581.7z"/>
		<path class="st13" d="M2236.3,1581.7H1828c-13.6,0-24.6-11-24.6-24.6v-50c0-13.6,11-24.6,24.6-24.6h408.3V1581.7z"/>
		<path class="st13" d="M2375.6,1467.8c0-57.1-46.3-103.4-103.4-103.4c-57.1,0-103.4,46.3-103.4,103.4v292.3h127.1v-195.1
			C2341.6,1554.2,2375.6,1516.7,2375.6,1467.8z"/>
		<rect x="1465.8" y="1581.7" class="st14" width="702.9" height="178.4"/>
		<circle class="st11" cx="2267.7" cy="1472.3" r="20.8"/>
		<circle class="st11" cx="1284.8" cy="1472.3" r="20.8"/>
		<path class="st11" d="M2274,1474.5c0,0,13.4-21.6,32.2-21.2c0,0-20.6-5.9-40.3,16.7l3.6,13.8c15.9-5.8,13.9,29.9,13.9,29.9
			S2295.8,1464.6,2274,1474.5z"/>
		<path class="st11" d="M2272.2,1419.2c0,0-14.4,30.1-0.7,52.4c13.7,22.3-9,3.4-9,3.4S2250.9,1451.2,2272.2,1419.2z"/>
		<path class="st11" d="M1243.4,1491.1c0,0,2.8-20.4,35.3-18.8c32.5,1.6,0,10.1,0,10.1S1260.3,1476.4,1243.4,1491.1z"/>
	</g>
	<g>
		<polygon class="st15" points="1001.3,1602.4 1001.1,1606 1000.7,1611 990.8,1756.8 861.5,1756.8 849.1,1611 848.5,1604.3 
			848.4,1602.4 		"/>
		<polygon class="st16" points="1001.3,1602.4 1001.1,1606 1000.7,1611 990.8,1756.8 937.4,1756.8 954.2,1602.4 		"/>
		<path class="st17" d="M1001.1,1606l-0.3,5c-5.6-0.6-51.3-5-73.9-5c-22.5,0-71.3,4.4-77.8,5l-0.6-6.8L1001.1,1606z"/>
		<path class="st15" d="M1003.6,1606.1H848.4c-1,0-1.8-0.8-1.8-1.8l0,0c0-1,0.8-1.8,1.8-1.8h155.1c1,0,1.8,0.8,1.8,1.8l0,0
			C1005.4,1605.2,1004.6,1606.1,1003.6,1606.1z"/>
		<g>
			<path class="st18" d="M921.3,1654.7c-66.9,0-74.6-50-74.7-50.5l0,0c0.4,2,11.1,48.6,78.2,47c67.3-1.7,80.5-46.2,80.6-46.6l0,0
				c-0.1,0.5-10.5,48.3-80.5,50.1C923.7,1654.7,922.5,1654.7,921.3,1654.7z"/>
		</g>
		<path class="st19" d="M934.3,1657H909c-3.2,0-5.7-2.6-5.7-5.7l0,0c0-3.2,2.6-5.7,5.7-5.7h25.3c3.2,0,5.7,2.6,5.7,5.7l0,0
			C940,1654.4,937.4,1657,934.3,1657z"/>
		<polygon class="st5" points="991.8,1756.8 859.7,1756.8 860.6,1746 991.5,1746 		"/>
	</g>
	<g>
		<polygon class="st20" points="1153.2,1631.8 1153,1634.7 1152.7,1638.8 1151.7,1653.7 1146.9,1724.2 1144.7,1756.8 1040,1756.8 
			1037.2,1724.2 1031.2,1653.9 1029.9,1638.8 1029.4,1633.3 1029.3,1631.8 		"/>
		<polygon class="st21" points="1153.2,1631.8 1153,1634.7 1152.7,1638.8 1144.7,1756.8 1101.4,1756.8 1115,1631.8 		"/>
		<path class="st22" d="M1153,1634.7l-0.3,4.1c-4.6-0.5-41.5-4-59.8-4c-18.2,0-57.7,3.5-63,4l-0.5-5.5L1153,1634.7z"/>
		<path class="st21" d="M1155,1634.7h-125.6c-0.8,0-1.5-0.7-1.5-1.5l0,0c0-0.8,0.7-1.5,1.5-1.5H1155c0.8,0,1.5,0.7,1.5,1.5l0,0
			C1156.5,1634.1,1155.8,1634.7,1155,1634.7z"/>
		<g>
			<path class="st23" d="M1088.4,1674.2c-54.2,0-60.4-40.5-60.5-40.9l0,0c0.3,1.6,9,39.4,63.3,38c54.5-1.4,65.2-37.4,65.3-37.8l0,0
				c-0.1,0.4-8.5,39.1-65.2,40.6C1090.3,1674.1,1089.3,1674.2,1088.4,1674.2z"/>
		</g>
		<path class="st24" d="M1098.9,1676h-20.5c-2.6,0-4.6-2.1-4.6-4.6l0,0c0-2.6,2.1-4.6,4.6-4.6h20.5c2.6,0,4.6,2.1,4.6,4.6l0,0
			C1103.5,1673.9,1101.4,1676,1098.9,1676z"/>
		<polygon class="st22" points="1145.5,1756.8 1038.5,1756.8 1039.2,1748.1 1145.2,1748.1 		"/>
	</g>
	<path class="st25" d="M2207.2,1117.2c5.7-6.3,1.2-16.4-7.3-16.4h-505.3c0,0-68,2.2-74.5,9c-6.5,6.8-96-32.2-134,26.3
		c-38,58.5,6,210-210,221c-122,7-125,123.8-76,402.9l444.7-3.2c0,0,155.3-7.2,194.3-44.9c39-37.7,80-191.7,158-193.7
		s49-32.9,83-36.5C2080.2,1481.7,2134.1,1196.9,2207.2,1117.2z"/>
	<path class="st26" d="M1579.2,1231.2c0,0-57,185-191,232c0,0,99-16,149-104c0,0-31,122.5-204,122.5l444,1.4
		C1777.2,1483.1,1562.2,1486.2,1579.2,1231.2z"/>
	<path class="st26" d="M2042.2,1152.2c0,0-106,242-230,267C1812.2,1419.2,1967.2,1430.2,2042.2,1152.2z"/>
	<path class="st26" d="M1864.2,1174.2c0,0-40.5,155-196.8,245C1667.5,1419.2,1813.3,1383.5,1864.2,1174.2z"/>
	<path class="st26" d="M1333.2,1736.2c0,0,374,39,489-119C1822.2,1617.2,1794.2,1789.2,1333.2,1736.2z"/>
	<path class="st26" d="M1803.4,1594.2c0,0-39.1,60.8-127.1,82.4C1676.2,1676.6,1766,1674.2,1803.4,1594.2z"/>
	<path class="st26" d="M1871.2,1623.2c0,0-30.5,74.5-86,97.5C1785.2,1720.7,1848.2,1728.7,1871.2,1623.2z"/>
	<path class="st26" d="M1272.5,1536.5c0,0-2,122.7,24.7,164.7c26.7,42,132.6,20.9,132.6,20.9s-96.6-19.1-103.3-70.4
		c0,0-2.1,27.4,6.7,46.7C1333.2,1698.4,1285.9,1657.8,1272.5,1536.5z"/>
	<g>
		<g>
			<polygon class="st27" points="2480.1,1759 2711.1,1759 2674.9,1463.9 2443.9,1463.9 			"/>
			<polygon class="st28" points="2489.2,1759 2720.2,1759 2684,1463.9 2453,1463.9 			"/>
			<polygon class="st29" points="2500.9,1743.8 2704.8,1743.8 2672.1,1477.9 2468.2,1477.9 			"/>
			<polygon class="st28" points="2481.8,1618.9 2693,1618.9 2691.2,1604 2480,1604 			"/>
			<polygon class="st30" points="2689.4,1507.9 2684,1463.9 2640,1463.9 			"/>
			<polygon class="st30" points="2458.4,1507.9 2453,1463.9 2497,1463.9 			"/>
			<polygon class="st30" points="2676.2,1759.1 2720.2,1759.1 2714.8,1715.1 			"/>
			<polygon class="st30" points="2533.2,1759.1 2489.2,1759.1 2483.8,1715.1 			"/>
		</g>
		<g>
			<polygon class="st27" points="2430.7,1759 2606.2,1759 2578.7,1534.7 2403.2,1534.7 			"/>
			<polygon class="st31" points="2438.3,1759 2613.8,1759 2586.3,1534.7 2410.8,1534.7 			"/>
			<polygon class="st29" points="2447.2,1747.4 2602.1,1747.4 2577.3,1545.4 2422.4,1545.4 			"/>
			<polygon class="st28" points="2432.7,1652.5 2593.1,1652.5 2591.8,1641.2 2431.3,1641.2 			"/>
			<polygon class="st30" points="2590.4,1568.2 2586.3,1534.7 2552.9,1534.7 			"/>
			<polygon class="st30" points="2414.9,1568.2 2410.8,1534.7 2444.2,1534.7 			"/>
			<polygon class="st30" points="2580.4,1759 2613.8,1759 2609.7,1725.6 			"/>
			<polygon class="st30" points="2471.8,1759 2438.3,1759 2434.2,1725.6 			"/>
		</g>
	</g>
	<path class="st4" d="M173.8,1764.2h2698.3c2.5,0,4.6-2.1,4.6-4.6l0,0c0-2.5-2.1-4.6-4.6-4.6H173.8c-2.5,0-4.6,2.1-4.6,4.6l0,0
		C169.2,1762.1,171.2,1764.2,173.8,1764.2z"/>
</g>
</svg>
